<?xml version="1.0" encoding="UTF-8" standalone="no"?>
<!-- Created with Inkscape (http://www.inkscape.org/) -->

<svg
   width="210mm"
   height="297mm"
   viewBox="0 0 210 297"
   version="1.1"
   id="svg1"
   inkscape:version="1.4.3 (0d15f75, 2025-12-25)"
   sodipodi:docname="teikning-2.svg"
   xmlns:inkscape="http://www.inkscape.org/namespaces/inkscape"
   xmlns:sodipodi="http://sodipodi.sourceforge.net/DTD/sodipodi-0.dtd"
   xmlns="http://www.w3.org/2000/svg"
   xmlns:svg="http://www.w3.org/2000/svg">
  <sodipodi:namedview
     id="namedview1"
     pagecolor="#ffffff"
     bordercolor="#000000"
     borderopacity="0.25"
     inkscape:showpageshadow="2"
     inkscape:pageopacity="0.0"
     inkscape:pagecheckerboard="0"
     inkscape:deskcolor="#d1d1d1"
     inkscape:document-units="mm"
     inkscape:zoom="0.43358378"
     inkscape:cx="1170.4774"
     inkscape:cy="884.48882"
     inkscape:window-width="1920"
     inkscape:window-height="1009"
     inkscape:window-x="-8"
     inkscape:window-y="174"
     inkscape:window-maximized="1"
     inkscape:current-layer="layer1" />
  <defs
     id="defs1">
    <rect
       x="405.91925"
       y="396.69381"
       width="138.38156"
       height="276.76312"
       id="rect154" />
  </defs>
  <g
     inkscape:label="Lag 1"
     inkscape:groupmode="layer"
     id="layer1">
    <path
       style="fill:#ff0000;fill-opacity:0;stroke:#000000;stroke-width:1.39098"
       d=""
       id="path8"
       transform="scale(0.26458333)" />
    <path
       style="fill:#ff0000;fill-opacity:0;stroke:#000000;stroke-width:1.39098"
       d=""
       id="path12"
       transform="scale(0.26458333)" />
    <path
       style="fill:#ff0000;fill-opacity:0;stroke:#000000;stroke-width:1.39098"
       d=""
       id="path14"
       transform="scale(0.26458333)" />
    <path
       style="fill:#ff0000;fill-opacity:0;stroke:#000000;stroke-width:1.39098"
       d=""
       id="path15"
       transform="scale(0.26458333)" />
    <path
       style="fill:#ff0000;fill-opacity:0;stroke:#000000;stroke-width:1.39098"
       d=""
       id="path16"
       transform="scale(0.26458333)" />
    <path
       style="fill:#ff0000;fill-opacity:0;stroke:#000000;stroke-width:1.39098"
       d=""
       id="path17"
       transform="scale(0.26458333)" />
    <path
       style="fill:#ff0000;fill-opacity:0;stroke:#000000;stroke-width:1.39098"
       d=""
       id="path18"
       transform="scale(0.26458333)" />
    <path
       style="fill:#ff0000;fill-opacity:0;stroke:#000000;stroke-width:1.39098"
       d=""
       id="path19"
       transform="scale(0.26458333)" />
    <path
       style="fill:#ff0000;fill-opacity:0;stroke:#000000;stroke-width:1.39098"
       d=""
       id="path20"
       transform="scale(0.26458333)" />
    <path
       style="fill:#ff0000;fill-opacity:0;stroke:#000000;stroke-width:1.39098"
       d=""
       id="path21"
       transform="scale(0.26458333)" />
    <path
       style="fill:#ff0000;fill-opacity:0;stroke:#000000;stroke-width:1.39098"
       d=""
       id="path22"
       transform="scale(0.26458333)" />
    <path
       style="fill:#ff0000;fill-opacity:0;stroke:#000000;stroke-width:1.39098"
       d=""
       id="path23"
       transform="scale(0.26458333)" />
    <path
       style="fill:#ff0000;fill-opacity:0;stroke:#000000;stroke-width:1.39098"
       d=""
       id="path24"
       transform="scale(0.26458333)" />
    <path
       style="fill:#ff0000;fill-opacity:0;stroke:#000000;stroke-width:1.39098"
       d=""
       id="path25"
       transform="scale(0.26458333)" />
    <path
       style="fill:#ff0000;fill-opacity:0;stroke:#000000;stroke-width:1.39098"
       d=""
       id="path26"
       transform="scale(0.26458333)" />
    <path
       style="fill:#ff0000;fill-opacity:0;stroke:#000000;stroke-width:1.39098"
       d=""
       id="path27"
       transform="scale(0.26458333)" />
    <path
       style="fill:#ff0000;fill-opacity:0;stroke:#000000;stroke-width:1.39098"
       d=""
       id="path28"
       transform="scale(0.26458333)" />
    <path
       style="fill:#ff0000;fill-opacity:0;stroke:#000000;stroke-width:1.39098"
       d=""
       id="path29"
       transform="scale(0.26458333)" />
    <path
       style="fill:#666666;fill-opacity:0;stroke:#000000;stroke-width:1.39098"
       d=""
       id="path66"
       transform="scale(0.26458333)" />
    <path
       style="fill:#666666;fill-opacity:0;stroke:#000000;stroke-width:1.39098"
       d=""
       id="path67"
       transform="scale(0.26458333)" />
    <path
       style="fill:#666666;fill-opacity:0;stroke:#000000;stroke-width:1.39098"
       d=""
       id="path68"
       transform="scale(0.26458333)" />
    <path
       style="fill:#666666;fill-opacity:0;stroke:#000000;stroke-width:1.39098"
       d=""
       id="path69"
       transform="scale(0.26458333)" />
    <path
       style="fill:#666666;fill-opacity:0;stroke:#000000;stroke-width:1.39098"
       d=""
       id="path70"
       transform="scale(0.26458333)" />
    <path
       style="fill:#666666;fill-opacity:0;stroke:#000000;stroke-width:1.39098"
       d=""
       id="path71"
       transform="scale(0.26458333)" />
    <path
       style="fill:#666666;fill-opacity:0;stroke:#000000;stroke-width:1.39098"
       d=""
       id="path72"
       transform="scale(0.26458333)" />
    <path
       style="fill:#666666;fill-opacity:0;stroke:#000000;stroke-width:1.39098"
       d=""
       id="path73"
       transform="scale(0.26458333)" />
    <path
       style="fill:#666666;fill-opacity:0;stroke:#000000;stroke-width:1.39098"
       d=""
       id="path74"
       transform="scale(0.26458333)" />
    <path
       style="fill:#666666;fill-opacity:0;stroke:#000000;stroke-width:1.39098"
       d=""
       id="path75"
       transform="scale(0.26458333)" />
    <path
       style="fill:#666666;fill-opacity:0;stroke:#000000;stroke-width:1.39098"
       d=""
       id="path79"
       transform="scale(0.26458333)" />
    <path
       style="fill:#666666;fill-opacity:0;stroke:#000000;stroke-width:1.39098"
       d=""
       id="path80"
       transform="scale(0.26458333)" />
    <path
       style="fill:#666666;fill-opacity:0;stroke:#000000;stroke-width:1.39098"
       d=""
       id="path81"
       transform="scale(0.26458333)" />
    <path
       style="fill:#666666;fill-opacity:0;stroke:#000000;stroke-width:1.39098"
       d=""
       id="path82"
       transform="scale(0.26458333)" />
    <path
       style="fill:#666666;fill-opacity:0;stroke:#000000;stroke-width:1.39098"
       d=""
       id="path83"
       transform="scale(0.26458333)" />
    <path
       style="fill:#666666;fill-opacity:0;stroke:#000000;stroke-width:1.39098"
       d=""
       id="path84"
       transform="scale(0.26458333)" />
    <path
       style="fill:#666666;fill-opacity:0;stroke:#000000;stroke-width:1.39098"
       d=""
       id="path107"
       transform="scale(0.26458333)" />
    <path
       style="fill:#666666;fill-opacity:0;stroke:#000000;stroke-width:1.39098"
       d=""
       id="path108"
       transform="scale(0.26458333)" />
    <path
       style="fill:#666666;fill-opacity:0;stroke:#000000;stroke-width:1.39098"
       d=""
       id="path109"
       transform="scale(0.26458333)" />
    <path
       style="fill:#666666;fill-opacity:0;stroke:#000000;stroke-width:1.39098"
       d=""
       id="path110"
       transform="scale(0.26458333)" />
    <path
       style="fill:#666666;fill-opacity:0;stroke:#000000;stroke-width:1.39098"
       d=""
       id="path111"
       transform="scale(0.26458333)" />
    <path
       style="fill:#666666;fill-opacity:0;stroke:#000000;stroke-width:1.39098"
       d=""
       id="path119"
       transform="scale(0.26458333)" />
    <path
       style="fill:#666666;fill-opacity:0;stroke:#000000;stroke-width:1.39098"
       d=""
       id="path120"
       transform="scale(0.26458333)" />
    <path
       style="fill:#666666;fill-opacity:0;stroke:#000000;stroke-width:1.39098"
       d=""
       id="path121"
       transform="scale(0.26458333)" />
    <path
       style="fill:#666666;fill-opacity:0;stroke:#000000;stroke-width:1.39098"
       d=""
       id="path122"
       transform="scale(0.26458333)" />
    <path
       style="fill:#666666;fill-opacity:0;stroke:#000000;stroke-width:1.39098"
       d=""
       id="path138"
       transform="scale(0.26458333)" />
    <path
       style="fill:#666666;fill-opacity:0;stroke:#000000;stroke-width:1.39098"
       d=""
       id="path139"
       transform="scale(0.26458333)" />
    <path
       style="fill:#666666;fill-opacity:0;stroke:#000000;stroke-width:1.39098"
       d=""
       id="path140"
       transform="scale(0.26458333)" />
    <path
       style="fill:#666666;fill-opacity:0;stroke:#000000;stroke-width:1.39098"
       d=""
       id="path141"
       transform="scale(0.26458333)" />
    <path
       style="fill:#666666;fill-opacity:0;stroke:#000000;stroke-width:1.39098"
       d=""
       id="path142"
       transform="scale(0.26458333)" />
    <path
       style="fill:#666666;fill-opacity:0;stroke:#000000;stroke-width:1.39098"
       d=""
       id="path146"
       transform="scale(0.26458333)" />
    <path
       style="fill:#666666;fill-opacity:0;stroke:#000000;stroke-width:1.39098"
       d=""
       id="path147"
       transform="scale(0.26458333)" />
    <path
       style="fill:#666666;fill-opacity:0;stroke:#000000;stroke-width:1.39098"
       d=""
       id="path148"
       transform="scale(0.26458333)" />
    <path
       style="fill:#666666;fill-opacity:0;stroke:#000000;stroke-width:1.39098"
       d=""
       id="path149"
       transform="scale(0.26458333)" />
    <ellipse
       style="fill:#ff0000;fill-opacity:0;stroke:#000000;stroke-width:0.264583"
       id="path153"
       cx="116.84944"
       cy="138.01115"
       rx="68.269516"
       ry="99.368027" />
    <ellipse
       style="fill:#ff0000;fill-opacity:0;stroke:#000000;stroke-width:0.264583"
       id="path154"
       cx="120.71375"
       cy="136.72305"
       rx="29.810411"
       ry="70.109665" />
    <text
       xml:space="preserve"
       transform="scale(0.26458333)"
       id="text154"
       style="fill:#ff0000;text-orientation:auto;stroke:#000000;fill-opacity:0;writing-mode:lr-tb;direction:ltr;white-space:pre;shape-inside:url(#rect154)" />
    <text
       xml:space="preserve"
       style="font-size:136.936px;writing-mode:lr-tb;direction:ltr;fill:#ff0000;fill-opacity:0;stroke:#000000;stroke-width:11.4112"
       x="92.223801"
       y="181.98964"
       id="text155"
       transform="scale(0.96245918,1.0390051)"><tspan
         sodipodi:role="line"
         id="tspan155"
         style="stroke-width:11.4112"
         x="92.223801"
         y="181.98964">J</tspan></text>
    <path
       style="fill:#ff0000;fill-opacity:0;stroke:#ff0000;stroke-width:2.30636"
       d="M 415.58492,893.64896 C 306.06247,876.40676 215.92287,758.77788 191.00839,600.58481 185.24171,563.9696 185.21508,478.69769 190.95913,442.821 c 14.54802,-90.86543 49.63485,-168.95954 99.93472,-222.42862 31.73483,-33.73433 69.99193,-57.50519 107.89866,-67.04231 24.74119,-6.22475 61.00943,-6.22475 85.75062,0 102.3202,25.74319 182.85133,137.92539 207.79968,289.47093 5.68901,34.55715 5.71283,122.86442 0.0425,157.67075 -12.23678,75.11379 -38.50352,142.41723 -75.31772,192.98713 -25.81962,35.46722 -67.12827,70.60846 -100.18594,85.22812 -30.89006,13.66108 -71.4396,19.64239 -101.29676,14.94196 z m 64.19041,-116.0795 c 7.37775,-3.4356 16.75824,-11.04087 25.83238,-20.94369 66.52834,-72.60393 85.5574,-273.30358 38.81158,-409.34606 -3.88297,-11.30045 -5.88438,-22.08656 -5.88438,-31.71244 V 300.9799 h -7.57498 c -6.10238,0 -8.43383,-1.4572 -11.99273,-7.49567 -2.42974,-4.12262 -9.10444,-12.51289 -14.83265,-18.64506 -33.93211,-36.32494 -74.51483,-31.88047 -105.50975,11.55503 -9.68861,13.57737 -11.02132,14.5857 -19.27796,14.5857 h -8.86982 l -0.89287,22.487 c -0.65956,16.6109 -2.74008,28.51378 -7.96185,45.5506 -21.64976,70.63555 -25.27658,182.25763 -8.56169,263.50156 l 1.54214,7.49566 h -15.27963 -15.27963 v 45.77143 45.77146 l 17.28429,3.79793 c 9.50636,2.08887 24.81482,4.46428 34.0188,5.2787 16.47947,1.4582 16.91026,1.66418 28.26631,13.51402 13.48992,14.0765 24.92851,22.69891 34.59539,26.07801 12.14995,4.24704 29.0628,3.16603 41.56705,-2.65681 z"
       id="path155"
       transform="scale(0.26458333)" />
    <path
       style="fill:#ff0000;fill-opacity:0;stroke:#ff0000;stroke-width:2.30636"
       d="M 415.99695,891.24403 C 399.31217,888.7929 378.14912,881.63184 358.89454,871.92197 277.62528,830.9388 212.57789,723.94095 193.37386,599.65343 187.71615,563.03705 188.47754,471.60598 194.7375,435.90192 219.65163,293.80267 294.73856,188.58009 393.31555,157.62586 c 14.70859,-4.61866 21.9198,-5.39398 49.50545,-5.32263 30.3402,0.0785 33.60287,0.53701 54.05756,7.59734 33.48561,11.55821 54.90348,25.38097 84.58658,54.59085 65.43328,64.39009 106.16726,162.97829 111.49229,269.84405 4.48622,90.03201 -5.42859,156.59739 -33.66583,226.02321 -20.40063,50.1582 -43.05037,84.64877 -77.39589,117.85684 -41.65843,40.27879 -74.93645,57.22102 -124.02288,63.14152 -21.67378,2.61414 -23.34289,2.60964 -41.87588,-0.11301 z M 482.25158,778.8711 c 12.4265,-6.33954 35.58878,-31.44348 45.57426,-49.39473 18.24805,-32.80514 30.31029,-72.56828 38.68247,-127.51658 3.85955,-25.33109 4.93955,-43.22295 5.01176,-83.02893 0.12337,-68.00944 -6.08321,-111.38055 -24.8736,-173.81485 -3.3608,-11.16687 -5.8052,-25.00556 -5.8052,-32.86562 v -13.57685 h -7.88415 c -6.48255,0 -8.74802,-1.39776 -12.74347,-7.86254 -8.81921,-14.26981 -33.33372,-35.12547 -46.38201,-39.45942 -27.33959,-9.08075 -53.00044,2.11546 -77.33776,33.74362 -9.49626,12.3411 -11.24486,13.57834 -19.19052,13.57834 h -8.74224 l -1.39454,22.487 c -0.87157,14.05411 -4.408,34.20656 -9.43018,53.73814 -13.09145,50.91356 -16.17721,78.33161 -16.21008,144.03218 -0.0218,43.552 0.96362,64.1482 4.02758,84.18211 2.23103,14.58773 4.60099,28.33939 5.26658,30.55927 1.06652,3.55707 -0.58767,4.03612 -13.93659,4.03612 h -15.14676 v 48.19394 48.19394 l 20.18065,3.65948 c 11.09935,2.01274 26.40781,4.36603 34.0188,5.2296 12.78948,1.45109 14.88683,2.55978 27.67631,14.63016 16.06372,15.16051 26.49458,22.71985 35.26737,25.55857 9.98425,3.23072 33.0993,0.93744 43.37132,-4.30295 z"
       id="path156"
       transform="scale(0.26458333)" />
    <path
       style="fill:#ff0000;fill-opacity:0;stroke:#ff0000;stroke-width:2.30636"
       d="M 410.53197,887.57973 C 391.81685,883.57797 365.26286,873.00139 347.10708,862.31732 272.29329,818.29187 209.31457,705.985 194.80714,590.72831 c -4.37879,-34.788 -1.63465,-136.67497 4.47665,-166.21365 24.98434,-120.7605 84.55639,-211.64343 165.34719,-252.25313 29.61568,-14.8864 40.74949,-17.07009 82.22153,-16.12624 37.13096,0.84506 37.67588,0.93323 58.02681,9.38968 29.59379,12.29717 47.71779,24.92772 75.1946,52.4029 58.24086,58.23736 95.1716,137.95361 107.18104,231.35375 4.57561,35.58574 4.6061,110.61816 0.0589,145.06437 -11.57124,87.65554 -47.10024,168.65041 -96.82717,220.73525 -43.83056,45.90884 -77.91549,65.32887 -128.06167,72.96361 -26.39582,4.01876 -31.12139,3.9764 -51.89308,-0.46512 z m 70.67151,-106.12406 c 13.22067,-5.28987 40.8605,-35.86352 52.12007,-57.65234 12.52487,-24.23735 22.23024,-53.57855 29.24109,-88.40133 9.57395,-47.55367 11.2102,-69.25469 9.96742,-132.19394 -1.28532,-65.0939 -5.08006,-93.24127 -19.2784,-142.99658 -4.4096,-15.45265 -8.6357,-36.13916 -9.39131,-45.97002 l -1.37385,-17.87428 h -7.49461 c -6.30819,0 -8.90303,-1.85824 -16.39155,-11.73853 -12.03435,-15.87805 -35.89064,-33.48819 -49.92807,-36.85571 -23.93477,-5.74187 -44.22799,3.11747 -68.87884,30.07016 -15.41313,16.8524 -17.71923,18.52171 -25.58862,18.52284 l -8.64885,10e-4 v 12.38286 c 0,14.79664 -4.677,42.68602 -12.65861,75.48454 -11.06192,45.45627 -13.23771,72.45011 -11.97232,148.53443 0.77516,46.60857 2.23518,74.64816 4.47344,85.91189 l 3.32271,16.7211 h -14.6462 -14.64621 v 50.73991 c 0,39.00473 0.66677,50.76142 2.88295,50.83295 1.58562,0.0512 17.12626,2.49511 34.53475,5.43099 l 31.65181,5.33797 15.62856,13.45627 c 8.59571,7.40097 17.37612,14.91537 19.51201,16.69871 11.93693,9.96652 37.5828,11.55122 57.56263,3.55687 z"
       id="path157"
       transform="scale(0.26458333)" />
    <path
       style="fill:#ff0000;fill-opacity:0;stroke:#ff0000;stroke-width:2.30636"
       d="m 412.24682,885.47677 c -19.53349,-4.27984 -54.03016,-18.74676 -70.90563,-29.73578 -21.20113,-13.80582 -55.65435,-49.80869 -74.01856,-77.34782 -30.06526,-45.08614 -52.98635,-100.305 -64.58921,-155.60086 -11.57612,-55.16846 -9.79574,-162.45368 3.60616,-217.3062 24.75041,-101.30075 76.71178,-181.39705 144.22704,-222.32 30.5008,-18.48741 45.99231,-23.26881 79.5694,-24.55879 39.11138,-1.50261 57.16822,1.37755 82.21131,13.11315 38.22429,17.91251 76.83835,53.53224 107.18187,98.87044 47.05541,70.30855 68.91522,150.17896 68.91522,251.79949 0,63.27499 -7.35189,110.07406 -25.61055,163.02618 -18.26014,52.95637 -43.13065,94.58279 -78.08616,130.69479 -42.51679,43.92346 -72.30686,60.72114 -123.20136,69.46939 -24.05604,4.13498 -30.01,4.12243 -49.29953,-0.10399 z M 482.02911,783.3247 c 13.88154,-6.31334 42.54638,-38.13512 53.61644,-59.52137 24.92789,-48.15831 39.83802,-121.8401 39.75691,-196.46798 -0.0754,-69.327 -4.96947,-110.98988 -19.79043,-168.4729 -4.38361,-17.00176 -8.61474,-38.53739 -9.40255,-47.85696 -1.42738,-16.88587 -1.45586,-16.94467 -8.20925,-16.94467 -5.39578,0 -10.37973,-3.64472 -24.45495,-17.88374 -23.12942,-23.39859 -37.94337,-31.44109 -58.03206,-31.50569 -19.85529,-0.0638 -30.07108,5.45728 -55.67758,30.09101 -17.20662,16.55295 -21.18729,19.29842 -27.98088,19.29842 h -7.92038 l -1.33361,20.18064 c -0.73348,11.09936 -5.63661,39.90002 -10.89585,64.00148 -13.18589,60.42682 -15.60647,96.46278 -11.95911,178.03994 1.52023,34.00178 3.3973,65.19448 4.17126,69.3171 l 1.4072,7.49567 h -14.22258 -14.22257 l 0.69924,51.70557 c 0.38458,28.43806 1.30148,52.30572 2.03757,53.03921 0.73608,0.73352 15.9855,3.59723 33.88758,6.36385 l 32.54925,5.03017 18.0055,15.37952 c 9.90303,8.45873 21.11909,17.0543 24.92458,19.10129 9.96873,5.36219 40.898,5.13446 53.04627,-0.39056 z"
       id="path158"
       transform="scale(0.26458333)" />
    <path
       style="fill:#ff0000;fill-opacity:0;stroke:#ff0000;stroke-width:2.30636"
       d="m 409.80132,882.12051 c -24.80764,-6.4987 -57.1215,-21.46164 -74.44121,-34.47004 C 285.12966,809.92362 242.22284,744.11751 217.2713,666.53786 202.95927,622.0387 197.25437,582.28318 197.21345,526.76145 197.1521,443.51687 211.10721,377.23696 242.06539,313.73676 278.799,238.39027 335.07073,183.75998 394.48596,165.76231 c 20.13505,-6.09918 77.80648,-6.07633 95.6154,0.0379 30.21617,10.37392 53.67032,25.34475 81.34495,51.92265 45.84994,44.03295 79.83014,102.75973 97.54747,168.58787 10.5248,39.10455 14.79152,69.73098 16.38742,117.6288 2.24889,67.49614 -4.46552,117.54148 -23.40954,174.48148 -19.23172,57.80466 -42.12988,96.38025 -81.41546,137.15726 -39.24489,40.73478 -68.50814,57.542 -116.32635,66.81156 -27.72016,5.37356 -32.9874,5.3475 -54.42853,-0.26931 z m 74.80473,-97.50192 c 12.85036,-6.64518 43.22067,-41.25417 53.29722,-60.73578 23.65483,-45.73326 36.60273,-106.38717 39.07415,-183.04154 2.12508,-65.91109 -2.82427,-113.85435 -18.80937,-182.20239 -4.30175,-18.39321 -8.45996,-38.63152 -9.24045,-44.97401 -2.53596,-20.60779 -3.09251,-21.91041 -9.36131,-21.91041 -4.08671,0 -11.66886,-5.52828 -25.66969,-18.71621 -24.60059,-23.17225 -37.51143,-29.6638 -59.0591,-29.69481 -20.23807,-0.0291 -27.90093,3.92297 -55.9706,28.86653 -18.16445,16.14149 -23.32092,19.54449 -29.61523,19.54449 h -7.62129 l -1.3673,19.02746 c -0.75202,10.46511 -5.62598,40.82256 -10.83103,67.46102 -13.21493,67.63142 -15.26651,98.26816 -11.79984,176.20938 1.546,34.75877 3.40217,66.15409 4.12483,69.76737 l 1.31392,6.5696 H 328.9445 314.81805 l 0.26958,39.78469 c 0.14827,21.88159 0.92666,46.53081 1.72977,54.77604 l 1.46019,14.99134 33.50413,5.76589 33.50414,5.7659 17.23577,14.68422 c 24.78211,21.11343 31.32807,23.79028 55.36668,22.64126 11.67043,-0.55784 22.54431,-2.42189 26.71774,-4.58004 z"
       id="path159"
       transform="scale(0.26458333)" />
    <path
       style="fill:#ff0000;fill-opacity:0;stroke:#ff0000;stroke-width:2.30636"
       d="M 407.34361,878.52891 C 364.16631,865.76655 337.556,849.51295 306.28341,816.80125 250.69897,758.65892 210.93479,668.56434 201.93713,580.38161 c -9.36607,-91.79333 5.33632,-186.43151 40.51335,-260.78146 43.91632,-92.82125 112.14513,-150.51358 184.226,-155.77622 59.40308,-4.33704 95.8752,10.68258 145.43789,59.89293 71.47334,70.96524 105.80544,157.44751 110.78616,279.06948 2.61585,63.87506 -4.51795,117.07 -23.25069,173.37457 -19.48287,58.5592 -41.80221,96.19354 -81.28461,137.06034 -39.45321,40.83656 -68.63975,57.59579 -116.44174,66.86221 -28.41702,5.50865 -30.92551,5.4372 -54.57988,-1.55455 z m 77.30497,-92.04256 c 14.46959,-6.04578 45.06105,-41.38379 57.91603,-66.90223 24.39404,-48.42469 36.09611,-114.53044 36.13214,-204.1128 0.0233,-57.90058 -2.19757,-79.52247 -13.95069,-135.82115 -4.39864,-21.06994 -10.00033,-49.01456 -12.4482,-62.09916 -5.01417,-26.8022 -5.53061,-28.10291 -11.1578,-28.10291 -2.22292,0 -13.8376,-8.39018 -25.81042,-18.64484 -27.61877,-23.65537 -35.87079,-27.92746 -56.555,-29.27868 -21.59527,-1.41073 -30.08913,2.49527 -60.79014,27.95504 -19.55236,16.21441 -25.51429,19.96848 -31.71244,19.96848 -7.44257,0 -7.63319,0.24477 -7.63363,9.80203 -4.8e-4,10.33596 -5.61793,46.91906 -15.02835,97.8707 -9.23437,49.99839 -11.2177,87.86789 -8.19139,156.40542 1.45628,32.98094 3.24064,63.33839 3.96523,67.46101 l 1.31744,7.49567 h -14.09483 -14.09484 l 0.22891,37.47834 c 0.1259,20.61308 0.9043,46.26485 1.72977,57.00395 l 1.50086,19.52559 34.07954,5.84436 c 33.0517,5.66807 34.40811,6.12588 44.97401,15.17889 30.35238,26.0064 38.05107,29.33909 63.61805,27.53964 9.97053,-0.70176 21.67311,-2.75704 26.00575,-4.56735 z"
       id="path160"
       transform="scale(0.26458333)" />
    <path
       style="fill:#ff0000;fill-opacity:0;stroke:#ff0000;stroke-width:2.30636"
       d="m 424.37012,880.61559 c -12.72916,-2.84732 -43.08822,-13.69911 -55.35262,-19.78571 -33.0587,-16.4064 -69.57686,-50.6486 -95.75829,-89.79028 -65.13928,-97.38425 -86.67206,-220.93571 -60.92733,-349.59067 7.65706,-38.26488 17.34812,-67.78034 33.17071,-101.02597 17.24688,-36.23831 35.85728,-63.9516 59.98465,-89.32492 22.50182,-23.66383 40.74355,-37.37148 64.88814,-48.75986 44.27015,-20.88109 95.84908,-22.49575 135.8705,-4.25339 40.32074,18.37881 91.99904,70.48736 123.02402,124.04829 48.65468,83.9965 64.92014,216.59163 40.31629,328.65621 -15.99008,72.83093 -46.31674,131.25968 -93.45063,180.04622 -39.53324,40.91938 -68.68913,57.66989 -116.51843,66.94159 -22.833,4.42618 -26.74182,4.74095 -35.24701,2.83849 z m 56.86747,-90.877 c 17.81764,-4.60322 50.23495,-41.76028 66.25095,-75.93755 24.74097,-52.79582 33.78665,-113.65287 31.97701,-215.13319 -1.16944,-65.58024 -1.14052,-65.35713 -20.81992,-160.61297 l -9.7321,-47.10714 -7.8372,-4.3533 c -4.31044,-2.39431 -16.76478,-11.72014 -27.67631,-20.72407 -22.93012,-18.9214 -33.7445,-24.33549 -52.48995,-26.27849 -19.37637,-2.00839 -30.36333,1.8626 -51.72103,18.22263 -34.04597,26.07926 -36.18864,27.49644 -43.97515,29.08551 -7.6916,1.5697 -7.73602,1.65527 -9.38275,18.07259 -0.91002,9.07248 -5.86671,41.20518 -11.01488,71.406 -12.23038,71.74734 -14.53725,107.11337 -11.55504,177.14764 1.29636,30.44394 2.95752,59.2446 3.69145,64.00147 l 1.33443,8.64885 h -14.40869 -14.40868 l 1.45924,56.93829 c 1.06796,41.67084 2.24883,57.66302 4.40393,59.64116 1.61958,1.48661 16.37494,4.99368 32.78969,7.79354 33.80239,5.76566 33.92097,5.814 54.33712,22.15101 16.58986,13.27524 23.16281,17.16722 33.44221,19.80192 7.85055,2.01213 32.71704,0.49614 45.33567,-2.7639 z"
       id="path161"
       transform="scale(0.26458333)" />
    <path
       style="fill:#ff0000;fill-opacity:0;stroke:#ff0000;stroke-width:2.30636"
       d="m 405.91925,872.10581 c -42.65691,-14.08694 -65.6366,-28.86854 -98.32958,-63.25008 -44.30244,-46.59061 -79.61109,-117.81034 -93.99724,-189.59824 -24.02928,-119.90774 -0.60487,-251.85694 61.33419,-345.49424 15.32217,-23.16351 47.26904,-57.25058 66.30919,-70.75141 52.14895,-36.97734 114.5999,-45.32544 164.53724,-21.99443 43.01192,20.09542 97.60947,77.66849 127.16546,134.09583 42.83322,81.77583 56.7015,200.95286 35.66075,306.45061 -15.29467,76.68698 -45.19434,135.65132 -94.84675,187.04468 -39.4532,40.83656 -68.63974,57.59579 -116.44174,66.86221 -12.49908,2.42295 -23.98611,4.37076 -25.52676,4.32846 -1.54065,-0.0423 -13.17979,-3.50433 -25.86476,-7.69339 z m 84.71149,-84.09856 c 10.74704,-6.64203 32.83866,-30.33125 44.07947,-47.26715 35.7249,-53.82475 50.34438,-132.67224 46.70894,-251.9162 -1.6996,-55.74803 -1.97662,-57.89235 -17.86038,-138.25728 -7.95818,-40.26494 -12.98909,-60.72305 -15.31342,-62.2717 -1.90385,-1.2685 -16.19163,-11.7956 -31.75063,-23.39356 -29.32718,-21.86102 -35.65959,-25.00129 -55.48416,-27.51487 -19.15164,-2.42827 -33.01646,3.11892 -61.92514,24.77568 -13.90658,10.41803 -28.95557,20.19379 -33.44221,21.72391 -5.22004,1.78025 -8.73194,4.73595 -9.75273,8.20816 -2.24,7.61929 -19.75698,123.09722 -22.68898,149.57358 -3.81401,34.44091 -3.05227,129.4289 1.37329,171.24718 l 1.15937,10.95521 h -13.91759 -13.9176 l 0.16094,32.86562 c 0.21523,43.95229 2.98213,84.21159 5.99465,87.22411 1.34762,1.34763 14.78451,4.94202 29.85976,7.98757 15.07525,3.04555 29.69085,6.09723 32.47911,6.78153 2.78827,0.68427 12.02744,6.57706 20.5315,13.09507 29.38415,22.52171 30.89405,23.07964 59.89673,22.13233 21.42562,-0.69982 26.86374,-1.65673 33.80908,-5.94919 z"
       id="path162"
       transform="scale(0.26458333)" />
    <path
       style="fill:#ff0000;fill-opacity:0;stroke:#ff0000;stroke-width:2.30636"
       d="m 407.07243,869.72138 c -43.2195,-14.89341 -64.25354,-28.54747 -96.94379,-62.93017 -68.83912,-72.40314 -108.1295,-187.17617 -102.88602,-300.54533 3.30473,-71.45164 18.78256,-133.75322 47.65158,-191.80783 17.02862,-34.24399 32.87754,-55.98078 62.04341,-85.09254 22.75775,-22.71552 29.8046,-28.2451 47.62448,-37.37037 56.69959,-29.03492 106.78963,-28.7352 157.28855,0.94118 19.14495,11.2508 70.32835,63.14224 87.89217,89.10804 15.2389,22.52871 33.42856,58.82062 41.50534,82.81123 27.52614,81.76159 31.92903,183.69428 11.68683,270.56641 -15.97941,68.57778 -44.96774,122.74791 -91.41214,170.82079 -39.16078,40.53387 -67.54709,56.99846 -115.16072,66.79535 -12.16662,2.50337 -23.30422,4.48453 -24.75021,4.40258 -1.44599,-0.082 -12.48875,-3.54667 -24.53948,-7.69934 z m 82.65833,-78.44846 c 9.38155,-4.8514 41.69205,-39.91552 50.71963,-55.04217 19.28273,-32.3102 31.57929,-71.31611 38.69333,-122.73916 5.00448,-36.17432 5.70628,-151.22076 1.11851,-183.35557 -3.26742,-22.88633 -16.89359,-93.8234 -23.53835,-122.53916 l -4.60626,-19.90617 -29.27836,-21.35432 c -36.97071,-26.96479 -44.98072,-30.635 -67.33329,-30.85234 -20.36423,-0.198 -23.21633,1.07863 -65.28533,29.22234 -15.6007,10.43671 -30.12405,20.01369 -32.27411,21.28219 -4.2323,2.49698 -6.7272,15.31193 -20.4303,104.93935 -7.36323,48.1605 -7.58309,51.7095 -7.64406,123.39023 -0.0345,40.59192 0.72286,81.328 1.68309,90.5246 l 1.74587,16.72111 h -13.85426 -13.85425 l 0.0523,31.71244 c 0.0704,42.63577 3.76758,88.44212 7.42243,91.95953 1.59712,1.53705 16.75234,5.87739 33.67827,9.64519 28.06968,6.24849 32.17101,7.83628 46.665,18.06588 8.73982,6.1684 21.35681,14.16517 28.03775,17.77057 11.78239,6.35842 12.89205,6.51585 36.95189,5.24265 14.79133,-0.78271 27.43908,-2.67489 31.33047,-4.68719 z"
       id="path163"
       transform="scale(0.26458333)" />
    <path
       style="fill:#ff0000;fill-opacity:0;stroke:#ff0000;stroke-width:2.30636"
       d="M 408.2209,867.49026 C 366.97229,852.50462 351.02268,842.41215 320.38792,811.91202 256.0187,747.8257 219.97202,664.68195 210.53006,558.5185 c -6.62433,-74.48258 10.6446,-167.57534 43.92348,-236.78137 18.09148,-37.62262 32.8445,-58.08658 64.8482,-89.95112 25.43153,-25.32094 31.40649,-30.02419 49.05767,-38.61622 52.44081,-25.52651 93.99161,-26.66555 140.03314,-3.83876 19.62845,9.73153 24.70108,13.7355 51.98806,41.03566 36.34564,36.36316 49.73401,53.94647 68.08223,89.41426 30.21111,58.39919 43.7818,121.28475 43.822,203.0679 0.0219,44.65331 -4.1121,80.26433 -13.7462,118.4111 -17.50296,69.30409 -44.31796,117.02336 -93.35501,166.13202 -30.70593,30.75081 -46.75713,42.36264 -72.23241,52.25473 -14.6035,5.67055 -54.61858,15.7067 -61.66202,15.4654 -1.2685,-0.0435 -11.64923,-3.4733 -23.0683,-7.62184 z m 80.46358,-73.84382 c 3.97159,-1.65942 16.71485,-13.04864 28.31838,-25.30936 15.82356,-16.7198 23.68054,-27.329 31.43145,-42.44165 17.67414,-34.46079 29.00086,-75.50633 33.79075,-122.45023 3.695,-36.21323 3.10704,-153.70533 -0.9019,-180.22826 -3.83467,-25.36985 -15.56993,-86.27235 -22.48299,-116.67995 L 554.07362,285.57096 526.8249,266.1757 c -39.47302,-28.09636 -45.30236,-30.76905 -69.18513,-31.72066 -23.80384,-0.94847 -25.38775,-0.28407 -71.88213,30.15207 -36.02572,23.58315 -33.05887,18.91488 -40.75049,64.12002 -16.00176,94.0454 -16.64758,102.16392 -15.8959,199.8259 l 0.69814,90.70711 -13.62488,-10e-4 -13.62487,-10e-4 1.58779,51.31649 c 1.77163,57.25819 3.63981,72.67383 9.3096,76.81967 2.12675,1.55513 16.86503,5.99183 32.75173,9.85934 25.96084,6.32 31.08408,8.4565 50.60922,21.10496 32.34866,20.95563 32.95446,21.15144 60.7115,19.62332 13.16364,-0.72473 27.1834,-2.67538 31.155,-4.33483 z"
       id="path164"
       transform="scale(0.26458333)" />
    <path
       style="fill:#ff0000;fill-opacity:0;stroke:#ff0000;stroke-width:2.30636"
       d="M 403.61289,863.0134 C 367.10217,848.94291 351.92021,838.91333 322.89031,809.68611 292.01225,778.59814 272.54854,751.53354 254.77554,714.9714 215.89943,634.99655 203.00902,542.9607 217.9094,451.7521 c 11.03504,-67.54797 31.1074,-122.44969 61.86886,-169.22308 17.36104,-26.3978 65.74912,-74.75003 84.62652,-84.56381 26.32128,-13.68363 46.66056,-19.67921 71.13625,-20.96944 28.29374,-1.49149 42.24297,1.41105 70.46536,14.66233 20.2261,9.49676 23.77628,12.2886 53.24853,41.87419 17.36767,17.43447 37.03241,39.483 43.69938,48.99673 25.91785,36.98464 48.01325,89.64257 57.58137,137.22838 13.7448,68.35807 11.90395,156.14575 -4.64282,221.4105 -17.95463,70.81771 -47.84992,121.81955 -101.12071,172.51363 -23.38729,22.25602 -36.1002,31.63954 -53.91606,39.79591 -11.89842,5.4473 -61.56344,19.51738 -68.4137,19.3816 -1.90275,-0.0377 -14.87602,-4.46824 -28.82949,-9.84564 z m 82.17318,-66.36196 c 13.07146,-3.33919 51.22623,-44.17241 63.72716,-68.20077 12.95177,-24.89496 24.75535,-60.89329 30.9649,-94.43617 4.67066,-25.23012 5.0813,-34.59897 5.09468,-116.23682 0.0143,-87.35625 -0.0886,-89.33665 -6.35019,-122.23705 -9.1661,-48.16117 -21.83594,-108.19071 -23.35277,-110.64498 -2.36646,-3.82902 -54.2515,-39.46616 -66.1902,-45.46265 -8.67268,-4.35603 -16.65722,-6.19405 -30.7185,-7.0713 -16.82122,-1.04944 -20.43632,-0.5277 -31.52767,4.55008 -20.34771,9.31549 -69.84697,42.87167 -74.25948,50.34145 -4.59014,7.77048 -10.20065,35.09618 -18.98029,92.44248 -5.72452,37.39109 -6.2065,46.6344 -7.23021,138.65856 l -1.09682,98.59686 h -12.78906 -12.78906 l 1.64188,50.8758 c 1.76782,54.77827 4.05382,75.04768 9.02454,80.01842 1.73399,1.73397 16.53852,6.78524 32.89898,11.22503 25.10693,6.81335 33.29205,10.26376 52.48095,22.12315 31.08894,19.21403 35.33246,20.54597 60.32424,18.93447 11.41648,-0.73616 24.52359,-2.30061 29.12692,-3.47656 z"
       id="path165"
       transform="scale(0.26458333)" />
    <path
       style="fill:#ff0000;fill-opacity:0;stroke:#ff0000;stroke-width:2.30636"
       d="M 410.53197,862.83904 C 369.60738,847.8919 349.88233,834.55309 316.97143,799.57002 272.71072,752.52251 244.19684,698.67432 227.4055,630.42564 c -9.85827,-40.06909 -12.43281,-62.09543 -12.35808,-105.72888 0.15254,-89.05943 25.25469,-178.20831 68.17863,-242.13257 6.40127,-9.53307 24.82345,-30.4809 40.93817,-46.55071 26.55188,-26.4779 31.32649,-30.19575 50.91454,-39.64579 32.73446,-15.79236 65.66647,-21.0543 94.72844,-15.13586 6.72205,1.36893 22.60156,7.4883 35.28781,13.59859 21.81813,10.50864 24.70556,12.78841 53.37584,42.14302 36.82539,37.70436 47.16507,51.46896 64.98433,86.50974 34.64774,68.13337 48.68713,144.69961 42.50009,231.78181 -5.7394,80.78153 -23.91413,139.77949 -59.81121,194.15618 -21.42246,32.45061 -73.49915,84.40145 -96.70945,96.4757 -14.32457,7.4518 -67.93465,24.95919 -75.44691,24.63863 -1.48417,-0.0633 -12.03925,-3.52672 -23.45573,-7.69646 z m 68.17796,-62.76747 c 13.75105,-1.60911 31.4319,-15.50607 51.98763,-40.86166 18.18218,-22.42784 32.52755,-51.15491 42.24636,-84.5998 12.97727,-44.65801 14.02454,-56.38045 14.02454,-156.98101 0,-88.45926 -0.21348,-92.95795 -5.86837,-123.6647 -12.77114,-69.34911 -21.9755,-107.77697 -27.142,-113.31716 -7.29312,-7.82061 -61.34918,-43.23914 -70.7758,-46.37361 -4.43975,-1.47627 -15.97034,-3.30077 -25.62356,-4.05444 -15.79797,-1.23341 -18.90839,-0.74943 -31.13586,4.84479 -15.89951,7.27423 -61.50642,37.18521 -70.63714,46.3269 -7.99773,8.00734 -9.32816,12.86279 -19.27061,70.32892 -9.26167,53.53127 -12.22341,102.49424 -12.38152,204.6894 l -0.0901,58.23557 h -13.03831 -13.03831 l 1.62758,47.78869 c 1.91489,56.22512 4.6285,80.64395 9.56837,86.10244 1.97196,2.179 15.20812,7.33521 29.41368,11.45824 27.10402,7.8667 38.64569,12.91963 64.73521,28.34103 25.53057,15.091 34.62848,16.50717 75.39822,11.7364 z"
       id="path166"
       transform="scale(0.26458333)" />
    <path
       style="fill:#ff0000;fill-opacity:0;stroke:#ff0000;stroke-width:2.30636"
       d="M 411.68515,860.65086 C 371.36636,844.95071 352.92868,832.5106 321.70307,799.93897 254.12212,729.44489 218.00452,635.09544 217.96456,528.94447 c -0.0293,-77.7759 15.60674,-146.82211 47.70709,-210.66688 15.0631,-29.95919 27.97987,-46.99346 60.59972,-79.91716 31.25392,-31.54506 44.31745,-40.03026 77.34152,-50.2359 35.88187,-11.08881 62.80269,-8.60325 100.26189,9.25705 16.99773,8.10441 23.24873,12.97308 48.05703,37.4298 36.95999,36.43619 53.20578,58.14892 71.07889,94.99801 16.41533,33.84355 26.41655,62.67952 33.08002,95.37765 16.03365,78.67847 9.68262,177.23518 -16.14724,250.57625 -17.41592,49.45065 -40.47093,84.02819 -86.11651,129.15613 -33.85906,33.47507 -43.40234,39.57943 -82.2006,52.57973 -35.56066,11.91544 -37.21252,12.0023 -59.94122,3.15171 z m 83.30535,-64.32113 c 23.89762,-14.00493 54.82793,-54.67776 70.07259,-92.1442 21.14252,-51.96149 25.07862,-86.46207 23.59957,-206.85442 l -1.06636,-86.79914 -10.55683,-50.73991 c -12.11852,-58.24581 -17.93931,-78.53851 -23.9066,-83.34393 -11.52635,-9.28212 -54.03437,-36.71402 -64.18468,-41.4206 -7.37367,-3.41909 -18.31803,-5.91195 -30.35213,-6.91348 -17.73172,-1.4757 -19.66606,-1.16855 -33.4422,5.31035 -21.74031,10.22442 -70.82892,43.88911 -75.71634,51.92583 -4.55592,7.49161 -14.03139,53.88095 -19.53731,95.64937 -4.98156,37.79056 -8.13772,104.36981 -8.15122,171.95006 l -0.0119,59.38875 h -12.68498 -12.68497 l 0.0223,20.18065 c 0.0337,30.52102 4.44409,97.45934 7.06648,107.25186 2.951,11.0197 7.3856,13.8011 37.63723,23.60631 13.60605,4.41001 38.94733,15.4155 56.31396,24.45661 l 31.57568,16.43841 27.79578,-0.91915 c 24.98556,-0.82621 28.84889,-1.53629 38.21188,-7.02337 z"
       id="path167"
       transform="scale(0.26458333)" />
    <path
       style="fill:#ff0000;fill-opacity:0;stroke:#ff0000;stroke-width:2.30636"
       d="m 407.07243,855.95906 c -37.22057,-16.06469 -46.15811,-22.17491 -76.29126,-52.15691 -43.9457,-43.7253 -70.11093,-85.90746 -89.66944,-144.56016 -38.83152,-116.44919 -20.76017,-271.2538 42.81999,-366.80887 16.43149,-24.69502 58.13426,-68.24069 79.018,-82.50991 16.83389,-11.50209 40.88605,-20.62358 65.52076,-24.84797 21.56421,-3.69785 46.14926,1.37589 74.39633,15.35357 19.08316,9.44304 23.55508,13.09086 53.11017,43.32278 17.74986,18.15634 37.18698,40.43632 43.19357,49.51105 14.04889,21.22495 34.10513,63.11111 42.89958,89.59301 33.27435,100.19594 24.96272,237.33783 -19.84867,327.50303 -15.55335,31.29497 -33.06085,54.23072 -68.69521,89.99442 -36.08004,36.211 -44.80585,41.90344 -84.69173,55.25009 -29.94441,10.02002 -39.2469,10.07362 -61.76209,0.35587 z m 86.7535,-56.35243 c 29.00798,-14.79878 65.61528,-67.56699 81.78062,-117.88403 11.04209,-34.37019 13.78691,-58.65325 15.14231,-133.96225 1.79836,-99.92141 -0.87409,-140.41476 -12.9381,-196.04055 -5.36462,-24.7357 -11.98539,-51.72011 -14.71282,-59.96534 -4.94009,-14.93423 -5.04682,-15.05119 -28.02257,-30.70475 -39.68384,-27.03691 -49.08089,-31.51675 -72.24325,-34.44038 -24.30183,-3.06745 -30.34896,-1.38653 -60.16859,16.72509 -30.51544,18.53423 -53.29677,36.43534 -56.67458,44.53372 -4.38735,10.51877 -14.0404,60.11603 -18.26285,93.83433 -4.75855,37.99933 -8.28754,113.33556 -8.29185,177.01309 l -0.003,51.31649 H 306.7458 294.06082 l 0.0228,22.48701 c 0.0234,23.11029 3.44695,80.50642 6.01143,100.78326 2.03651,16.10229 8.82535,21.99156 35.65388,30.92948 12.11837,4.03724 37.53458,15.10029 56.48047,24.58455 l 34.44707,17.24409 28.93402,-0.85939 c 23.47316,-0.69722 30.68574,-1.75307 38.21543,-5.59442 z"
       id="path168"
       transform="scale(0.26458333)" />
    <path
       style="fill:#ff0000;fill-opacity:0;stroke:#ff0000;stroke-width:2.30636"
       d="M 417.30662,857.1684 C 379.23697,843.08171 357.53876,828.23127 325.67745,794.45655 285.4419,751.8047 261.75224,712.38773 243.94664,658.4656 229.70347,615.33183 224.16126,578.79892 224.00319,527.00311 c -0.18081,-59.24564 6.73526,-103.2239 24.19693,-153.86465 19.06542,-55.29178 38.95553,-86.43981 83.7173,-131.10175 34.89896,-34.82114 49.80707,-43.71892 87.63737,-52.30563 21.8122,-4.95092 22.79941,-4.97939 41.25745,-1.18973 11.44724,2.35026 27.1026,7.93697 39.66774,14.15568 18.75144,9.2804 23.66851,13.24388 50.88477,41.01642 16.57015,16.90882 34.55496,36.38865 39.96626,43.2885 12.7076,16.20324 39.9999,71.41659 48.65034,98.42149 32.39298,101.12426 24.38585,232.98446 -19.54224,321.81838 -17.19401,34.77072 -40.73218,64.88557 -79.60547,101.84763 -24.73395,23.5179 -40.01437,32.86085 -70.71803,43.23935 -27.05275,9.14442 -38.37174,10.18173 -52.80899,4.8396 z M 496.2768,800.15 c 35.35956,-17.12999 77.73555,-87.81299 89.63016,-149.50273 6.89682,-35.7693 10.01229,-155.68066 5.63934,-217.05171 -3.70122,-51.94408 -22.29529,-142.59093 -31.93396,-155.67926 -5.44024,-7.38733 -45.73296,-35.14377 -63.74508,-43.91208 -15.49947,-7.54515 -43.38527,-12.66881 -56.15982,-10.31865 -11.95674,2.1997 -32.17152,12.90528 -59.52133,31.52203 -30.88841,21.02544 -36.27966,27.35124 -41.00069,48.10803 -14.80292,65.08347 -22.0495,149.74791 -22.05753,257.70629 l -0.003,46.70377 h -12.68497 -12.68498 l 0.0342,22.48701 c 0.0357,23.45076 3.38655,80.18609 6.02707,102.04706 2.1075,17.44816 9.79241,24.63798 36.60638,34.24814 11.41648,4.09169 36.32516,15.17755 55.35262,24.63524 l 34.59539,17.19582 29.98267,-1.20198 c 25.80425,-1.03447 31.64685,-2.00819 41.92401,-6.98698 z"
       id="path169"
       transform="scale(0.26458333)" />
    <path
       style="fill:#ff0000;fill-opacity:0;stroke:#ff0000;stroke-width:2.30636"
       d="m 424.81378,856.49799 c -13.67286,-3.075 -42.08414,-16.98775 -57.73426,-28.27196 -19.32808,-13.93615 -50.78086,-46.39544 -70.63306,-72.89334 -27.90006,-37.23986 -50.52484,-89.23932 -62.71807,-144.14746 -5.90131,-26.57456 -8.47496,-109.12076 -4.46286,-143.1399 7.75492,-65.75499 31.20174,-131.74087 62.6416,-176.29087 6.71404,-9.51373 25.77266,-30.86543 42.3525,-47.44822 34.83398,-34.84018 48.98358,-43.40587 85.72771,-51.89667 21.56677,-4.98363 22.73682,-5.0233 39.68433,-1.34556 9.60428,2.08422 26.86665,8.36565 38.36078,13.95875 19.39235,9.43641 23.33826,12.65716 54.75445,44.69172 18.62081,18.98735 37.42418,40.10587 41.78528,46.93006 9.13733,14.29806 26.03202,47.43904 34.76242,68.19075 38.80131,92.22875 36.55678,231.62342 -5.2829,328.08965 -15.5627,35.88155 -35.89201,63.92693 -73.78462,101.78988 -29.48438,29.46125 -36.01633,34.8007 -52.84768,43.19947 -30.00495,14.97233 -57.43993,21.99443 -72.60562,18.5837 z m 65.28758,-51.74115 c 31.43518,-10.10829 70.4222,-63.44262 89.83243,-122.89097 8.78614,-26.90961 11.09739,-43.70606 14.18936,-103.11845 4.94262,-94.97295 0.20248,-169.43516 -15.55337,-244.32531 -9.87975,-46.96012 -13.68017,-55.86234 -29.13354,-68.24337 -37.2594,-29.85173 -69.91664,-44.45202 -99.69616,-44.57183 -14.11683,-0.0568 -18.18985,0.98911 -32.42942,8.32749 -25.02222,12.89524 -57.33468,35.37644 -67.58602,47.02258 -10.29039,11.6905 -12.87866,20.36572 -21.01935,70.45144 -7.67229,47.2039 -11.68569,102.76119 -13.18199,182.47764 l -1.41779,75.53327 h -12.69303 -12.69304 l 1.51037,43.24424 c 1.83354,52.49691 5.13266,88.88541 8.68331,95.77466 5.45926,10.59254 12.46989,15.47309 35.55127,24.74962 13.0532,5.24613 38.103,16.70936 55.66623,25.4738 l 31.93314,15.93536 28.8295,-1.25141 c 15.85622,-0.68829 33.49987,-2.75322 39.2081,-4.58876 z"
       id="path170"
       transform="scale(0.26458333)" />
    <path
       style="fill:#ff0000;fill-opacity:0;stroke:#ff0000;stroke-width:2.30636"
       d=""
       id="path171"
       transform="scale(0.26458333)" />
    <path
       style="fill:#ff0000;fill-opacity:0;stroke:#ff0000;stroke-width:2.30636"
       d=""
       id="path172"
       transform="scale(0.26458333)" />
    <path
       style="fill:#ff0000;fill-opacity:0;stroke:#ff0000;stroke-width:2.30636"
       d=""
       id="path173"
       transform="scale(0.26458333)" />
    <path
       style="fill:#ff0000;fill-opacity:0;stroke:#ff0000;stroke-width:2.30636"
       d=""
       id="path174"
       transform="scale(0.26458333)" />
    <path
       style="fill:#ff0000;fill-opacity:0;stroke:#ff0000;stroke-width:2.30636"
       d=""
       id="path175"
       transform="scale(0.26458333)" />
    <path
       style="fill:#ff0000;fill-opacity:0;stroke:#ff0000;stroke-width:2.30636"
       d=""
       id="path176"
       transform="scale(0.26458333)" />
    <path
       style="fill:#ff0000;fill-opacity:0;stroke:#ff0000;stroke-width:2.30636"
       d="m 411.49447,849.09983 c -30.57482,-12.57801 -44.1159,-22.1872 -74.86082,-53.12364 -45.41555,-45.69851 -68.27027,-82.74187 -88.60765,-143.617 -14.55347,-43.56238 -17.0247,-62.25902 -17.17859,-129.96879 -0.12602,-55.44315 0.22207,-60.46647 6.07649,-87.69092 11.71818,-54.49245 34.5243,-110.34634 58.36695,-142.94502 6.03055,-8.24524 24.56716,-28.55127 41.19246,-45.12451 34.77957,-34.67068 49.22676,-43.46031 85.03438,-51.7347 20.56004,-4.751 22.10991,-4.80266 37.51914,-1.25053 8.84027,2.03784 25.41395,8.23858 36.83043,13.77942 19.23612,9.336 23.21529,12.58378 54.29971,44.31933 38.87228,39.68655 43.04093,45.33364 62.92311,85.23958 29.63745,59.48598 40.64598,108.38869 40.69884,180.79463 0.0414,56.70682 -6.76155,101.95284 -22.19345,147.607 -16.95527,50.16096 -37.67382,81.35825 -85.85236,129.27351 -34.08503,33.89876 -50.706,44.76473 -84.1376,55.00501 -20.26609,6.20762 -34.0281,6.05288 -50.11104,-0.56337 z m 72.841,-40.97275 c 30.06129,-5.53729 65.29693,-46.30607 89.54115,-103.60203 17.8568,-42.20068 23.06802,-84.58449 23.24473,-189.05373 0.14205,-83.96288 -5.2356,-136.3607 -20.53492,-200.08553 -8.6242,-35.92151 -12.61018,-42.01837 -40.89611,-62.55376 -29.37361,-21.32503 -59.42794,-32.5812 -86.94544,-32.56345 -15.36712,0.01 -19.31731,0.96663 -33.01479,7.99603 -34.47107,17.69017 -67.78462,43.67125 -75.57409,58.93987 -7.91386,15.51244 -18.38436,81.36265 -22.91016,144.08472 -1.28143,17.75897 -3.03608,63.68435 -3.89922,102.0564 l -1.56936,69.76737 H 299.10373 286.4302 l 1.5565,43.24424 c 1.97349,54.82957 5.60703,92.15677 9.75084,100.17003 4.8634,9.40478 15.47315,16.27012 44.75683,28.96119 14.58772,6.32207 37.93961,17.35309 51.89308,24.51337 l 25.36995,13.01866 26.52314,-1.38462 c 14.58772,-0.76154 31.71244,-2.34047 38.05493,-3.50876 z"
       id="path177"
       transform="scale(0.26458333)" />
    <path
       style="fill:#ff0000;fill-opacity:0;stroke:#ff0000;stroke-width:2.30636"
       d="m 413.63123,846.82182 c -25.68736,-9.29841 -42.87585,-21.41275 -73.2058,-51.59497 -26.23155,-26.10377 -32.85173,-34.79171 -21.79584,-28.60354 2.3434,1.31165 26.05582,12.89184 52.69427,25.73376 l 48.43354,23.34896 33.44221,-2.53128 c 29.61299,-2.24143 35.06864,-3.32581 47.64634,-9.47028 23.14432,-11.30644 48.23398,-41.68253 67.57571,-81.81399 16.39395,-34.01525 23.37505,-61.12094 27.62117,-107.24571 3.10083,-33.68357 3.14481,-156.21452 0.0691,-192.58101 -4.33356,-51.23907 -18.05356,-120.83322 -27.45416,-139.25991 -9.30642,-18.24207 -47.98026,-46.32353 -79.10541,-57.43921 -13.37262,-4.77574 -21.16527,-6.00957 -38.65912,-6.12097 -19.47503,-0.12402 -23.36847,0.57648 -35.02801,6.30215 -31.21231,15.32748 -69.41836,44.95621 -77.08279,59.77758 -8.63209,16.69262 -19.7038,86.62774 -23.83869,150.57852 -1.23027,19.02746 -2.96053,63.91498 -3.84504,99.75004 l -1.60819,65.15465 h -12.32758 -12.32758 l 0.0206,17.87429 c 0.0229,19.82581 3.74784,86.90145 5.92375,106.66912 l 1.39628,12.68498 -6.31264,-9.02089 c -9.22779,-13.1867 -27.02037,-52.27543 -35.26204,-77.46759 -14.35912,-43.89129 -14.7176,-46.62801 -15.8603,-121.08387 -1.0504,-68.44172 -0.99542,-69.48661 5.07872,-96.51717 11.50814,-51.21243 32.28434,-102.78202 54.96255,-136.42512 5.13043,-7.61099 23.93216,-28.39866 41.78162,-46.19483 37.06033,-36.94969 48.51647,-44.23991 83.4431,-53.09978 21.35779,-5.41785 22.74293,-5.49535 37.48694,-2.09761 8.42032,1.94046 24.67457,8.072 36.12052,13.62565 19.52269,9.47252 23.02031,12.36393 56.50581,46.71215 38.72232,39.71995 48.1437,53.21737 67.86492,97.22561 24.02087,53.60301 33.42466,99.68372 33.52132,164.26215 0.13435,89.74201 -22.44835,170.65885 -62.70873,224.69401 -17.2771,23.18833 -74.269,79.2472 -89.85249,88.38152 -16.62327,9.74377 -43.06956,18.9713 -58.2095,20.31024 -8.63902,0.764 -15.82041,-0.43295 -27.1046,-4.51765 z"
       id="path178"
       transform="scale(0.26458333)" />
    <path
       style="fill:#ff0000;fill-opacity:0;stroke:#ff0000;stroke-width:2.30636"
       d="m 416.16452,844.61814 c -23.47119,-8.00164 -39.86004,-19.12385 -68.3163,-46.36249 -14.43052,-13.81306 -25.84171,-25.51025 -25.35821,-25.99375 0.48351,-0.48351 22.04754,9.57148 47.92007,22.34442 l 47.04096,23.22352 23.0636,-1.43608 c 50.79964,-3.16308 62.44051,-7.06892 84.89275,-28.484 34.1001,-32.5249 60.52844,-87.85227 69.64571,-145.80243 5.09426,-32.37958 7.28784,-155.4953 3.70551,-207.97333 -2.81555,-41.24523 -10.98708,-94.79311 -18.99388,-124.46677 -2.68917,-9.96614 -4.32274,-18.68689 -3.63016,-19.37945 2.6247,-2.62472 18.49453,22.19626 32.64204,51.05341 26.35776,53.76278 37.23718,97.36283 39.70953,159.13879 3.58457,89.56705 -16.28091,171.51493 -56.46897,232.9423 -6.22436,9.51391 -25.76978,31.30209 -47.59023,53.05101 -41.20242,41.06734 -55.3172,50.50796 -88.02029,58.87199 -21.8702,5.59346 -21.69249,5.59666 -40.24213,-0.72714 z"
       id="path179"
       transform="scale(0.26458333)" />
    <path
       style="fill:#ff0000;fill-opacity:0;stroke:#ff0000;stroke-width:2.30636"
       d=""
       id="path180"
       transform="scale(0.26458333)" />
    <path
       style="fill:#ff0000;fill-opacity:0;stroke:#ff0000;stroke-width:2.30636"
       d=""
       id="path181"
       transform="scale(0.26458333)" />
    <path
       style="fill:#ff0000;fill-opacity:0;stroke:#ff0000;stroke-width:2.30636"
       d=""
       id="path182"
       transform="scale(0.26458333)" />
    <path
       style="fill:#ff0000;fill-opacity:0;stroke:#ff0000;stroke-width:2.30636"
       d=""
       id="path183"
       transform="scale(0.26458333)" />
    <path
       style="fill:#ff0000;fill-opacity:0;stroke:#ff0000;stroke-width:2.30636"
       d="m 416.91065,842.10909 c -7.9082,-2.9958 -20.20648,-8.95651 -27.32952,-13.24604 -13.23602,-7.97078 -52.78618,-43.22978 -50.76179,-45.25416 0.61596,-0.61596 18.56008,7.38498 39.87582,17.77988 l 38.75588,18.89986 21.91042,-1.49632 c 54.39384,-3.71465 67.14092,-8.58536 92.82519,-35.46879 35.49884,-37.15621 60.04086,-93.66949 66.24102,-152.53423 3.92776,-37.2901 5.51698,-152.24092 2.66251,-192.58101 C 598.3481,399.4567 589.655,338.53654 583.4508,314.59377 c -2.01297,-7.76828 -3.17551,-14.60857 -2.58345,-15.20063 3.57004,-3.57004 36.05984,62.28744 47.43294,96.14749 31.62422,94.15196 21.49538,223.3329 -24.44377,311.75016 -14.33063,27.58156 -36.63057,54.59212 -74.34028,90.04384 -26.93814,25.32512 -42.56627,35.70773 -63.98719,42.51015 -25.72145,8.16806 -32.23326,8.47135 -48.6184,2.26431 z"
       id="path184"
       transform="scale(0.26458333)" />
    <path
       style="fill:#ff0000;fill-opacity:0;stroke:#ff0000;stroke-width:2.30636"
       d="m 407.24106,834.82782 c -9.3494,-4.48058 -23.33126,-13.19982 -31.07078,-19.37609 -13.81328,-11.02324 -26.43794,-23.21729 -24.03716,-23.21729 0.66957,0 15.64001,6.87872 33.26766,15.28607 l 32.05026,15.28604 30.48068,-2.65185 c 16.85119,-1.46606 37.47704,-4.80971 46.12719,-7.47768 14.27298,-4.4022 17.48976,-6.67546 36.64372,-25.89578 39.44886,-39.5855 63.46979,-93.78229 69.8742,-157.65239 3.99307,-39.82239 5.57798,-148.87977 2.72432,-187.46103 -2.69205,-36.39659 -12.26079,-108.03916 -16.32061,-122.19489 -4.70349,-16.40012 0.51354,-8.80437 15.95976,23.23668 25.76134,53.43837 34.95795,86.05649 39.77529,141.07296 7.9904,91.25481 -17.42118,195.36517 -62.05872,254.25243 -17.06692,22.51523 -68.58497,73.40544 -85.94279,84.89542 -16.17148,10.70469 -43.52421,20.04393 -58.7046,20.04393 -8.72533,0 -16.16623,-2.10709 -28.76842,-8.14653 z"
       id="path185"
       transform="scale(0.26458333)" />
    <path
       style="fill:#ff0000;fill-opacity:0;stroke:#ff0000;stroke-width:2.30636"
       d="m 561.69224,755.01647 c -0.0516,-0.8082 4.516,-10.14895 10.15013,-20.75724 12.34574,-23.24538 22.90523,-53.94685 27.6708,-80.45222 5.61769,-31.24481 9.39803,-151.77457 6.28683,-200.44539 -2.17812,-34.07391 -8.60532,-92.2046 -13.15051,-118.93951 -1.73813,-10.2237 12.77884,17.75321 24.40026,47.02386 31.90917,80.36902 32.7438,181.09074 2.25962,272.6866 -9.8471,29.58759 -21.47727,54.18584 -34.76242,73.52381 -9.59843,13.97156 -22.70768,29.66504 -22.85471,27.36009 z"
       id="path186"
       transform="scale(0.26458333)" />
    <path
       style="fill:#ff0000;fill-opacity:0;stroke:#ff0000;stroke-width:2.30636"
       d="m 576.21742,732.2691 c 0.66558,-1.90275 4.33934,-10.75797 8.16392,-19.6783 18.22343,-42.50371 23.68564,-87.89203 23.9997,-199.42584 0.13138,-46.6554 -0.91828,-75.77116 -3.61687,-100.32663 -2.09107,-19.02747 -4.36157,-41.3415 -5.04554,-49.58673 l -1.24359,-14.99134 7.99161,16.14452 c 16.79377,33.92649 27.00546,73.65157 31.32107,121.84393 6.26584,69.9705 -10.09349,154.81305 -41.56886,215.58399 -10.33204,19.94853 -23.16218,39.4723 -20.00144,30.4364 z"
       id="path187"
       transform="scale(0.26458333)" />
    <path
       style="fill:#ff0000;fill-opacity:0;stroke:#ff0000;stroke-width:2.30636"
       d="m 594.93029,693.06099 c 7.12998,-32.26728 10.61212,-54.426 12.66703,-80.60701 3.58608,-45.68927 2.98634,-163.02617 -1.04386,-204.22837 -1.86118,-19.02747 -3.35512,-36.67112 -3.31988,-39.20811 0.0565,-4.06589 0.43363,-3.92919 3.18146,1.15318 12.52985,23.17514 25.12786,74.75622 28.97415,118.63128 4.30629,49.12232 -4.41634,114.50954 -22.02337,165.09322 -8.22002,23.61555 -20.99781,50.76161 -18.43553,39.16581 z"
       id="path188"
       transform="scale(0.26458333)" />
    <path
       style="fill:#ff0000;fill-opacity:0;stroke:#ff0000;stroke-width:2.30636"
       d="m 603.25624,667.69104 c 0.002,-1.90275 1.57131,-13.83816 3.48813,-26.52314 6.84839,-45.32076 6.56766,-224.75856 -0.40594,-259.46543 l -1.15854,-5.76589 3.36317,5.78948 c 5.5115,9.4877 14.76223,44.29015 20.09369,75.59511 6.83625,40.14066 5.3868,100.78291 -3.40197,142.33226 -7.53445,35.61951 -21.98924,80.3663 -21.97854,68.03761 z"
       id="path189"
       transform="scale(0.26458333)" />
    <path
       style="fill:#ff0000;fill-opacity:0;stroke:#ff0000;stroke-width:2.30636"
       d="m 608.49379,645.78062 c 5.35966,-26.51352 7.28189,-208.24704 2.57365,-243.32091 l -1.0836,-8.07226 3.57524,9.22544 c 1.96638,5.07399 6.31147,22.19871 9.65575,38.05493 5.33406,25.29031 6.09639,34.35061 6.2098,73.8035 0.14144,49.20145 -1.98877,67.24893 -12.79353,108.38879 -6.47318,24.64704 -11.33719,37.74986 -8.13731,21.92051 z"
       id="path190"
       transform="scale(0.26458333)" />
    <path
       style="fill:#ff0000;fill-opacity:0;stroke:#ff0000;stroke-width:2.30636"
       d="m 613.83823,612.75249 c 0.71345,-8.01749 1.44625,-54.61273 1.62845,-103.54497 l 0.33127,-88.96771 4.45475,17.05649 c 3.88735,14.88403 4.45699,25.28174 4.47239,81.63456 0.0172,62.79644 -0.15066,65.18253 -6.08319,86.48847 l -6.10084,21.91042 z"
       id="path191"
       transform="scale(0.26458333)" />
    <path
       style="fill:#ff0000;fill-opacity:0;stroke:#ff0000;stroke-width:2.30636"
       d="m 614.82685,574.09128 c 0.11067,-2.68677 0.65718,-3.23328 1.39343,-1.39342 0.66624,1.6649 0.5843,3.65414 -0.18208,4.42052 -0.76639,0.76639 -1.31149,-0.59581 -1.21135,-3.0271 z"
       id="path192"
       transform="scale(0.26458333)" />
    <path
       style="fill:#ff0000;fill-opacity:0;stroke:#ff0000;stroke-width:2.30636"
       d=""
       id="path193"
       transform="scale(0.26458333)" />
    <path
       style="fill:#ff0000;fill-opacity:0;stroke:#ff0000;stroke-width:2.30636"
       d=""
       id="path194"
       transform="scale(0.26458333)" />
    <path
       style="fill:#ff0000;fill-opacity:0;stroke:#ff0000;stroke-width:2.30636"
       d="m 273.43329,699.66075 c -14.72009,-30.77237 -26.17251,-62.47127 -31.45869,-87.07371 -2.14975,-10.0052 -3.76505,-38.21403 -4.70262,-82.12439 -1.42584,-66.77851 -1.41827,-66.92769 4.78333,-94.21081 14.44762,-63.5604 40.33531,-121.38519 69.00493,-154.13485 25.37992,-28.9918 59.43679,-60.16167 74.51473,-68.19813 16.18367,-8.62581 44.19769,-16.72513 57.84902,-16.72513 19.74782,0 58.29471,16.66965 75.74758,32.75715 5.62773,5.18746 9.75366,9.91034 9.16873,10.49527 -0.58492,0.58493 -6.57387,-2.07497 -13.30874,-5.91089 -21.75667,-12.39175 -38.21275,-16.5843 -65.09462,-16.5843 -23.65893,0 -24.53675,0.19216 -41.88228,9.16807 -29.22426,15.12289 -63.80861,43.17895 -71.45626,57.96787 -8.5388,16.51221 -19.91157,90.30804 -23.95318,155.42774 -1.25966,20.29596 -3.00091,64.14562 -3.86946,97.44368 l -1.57918,60.54193 H 294.5129 281.82923 l 1.65863,43.24424 c 0.91224,23.78433 2.45669,52.585 3.43211,64.00148 0.97541,11.41647 1.43212,21.1819 1.01491,21.70092 -0.41721,0.51903 -6.94293,-11.98472 -14.50159,-27.78614 z"
       id="path195"
       transform="scale(0.26458333)" />
    <path
       style="fill:#ff0000;fill-opacity:0;stroke:#ff0000;stroke-width:2.30636"
       d="m 272.58866,691.20571 c -14.17086,-30.12691 -26.32492,-67.0384 -29.43358,-89.38882 -1.39049,-9.9973 -2.70042,-47.78546 -2.91094,-83.97369 -0.37803,-64.98214 -0.30499,-66.08455 5.89948,-89.04067 15.12448,-55.95958 36.93283,-105.73354 59.17685,-135.06138 6.12034,-8.06942 24.18242,-27.27823 40.13795,-42.68626 32.47092,-31.35668 48.43674,-41.13579 78.8763,-48.31193 14.99574,-3.53525 19.50718,-3.73976 30.7168,-1.39245 13.50444,2.82786 46.4488,17.65885 54.6539,24.60425 l 4.61272,3.90456 -4.61272,-1.69518 C 481.793,217.90632 478.42231,217.19437 453.19961,216.22903 l -26.52313,-1.0151 -18.45087,9.33308 c -22.62603,11.44503 -57.30627,37.50572 -67.23683,50.52556 -8.93308,11.71205 -13.08259,25.36689 -19.12857,62.94654 -7.97147,49.54788 -11.50887,92.97437 -14.40778,176.87562 l -2.80901,81.29917 h -12.21038 -12.21038 l 10e-4,15.56792 c 7.3e-4,8.56236 1.08603,34.63444 2.41176,57.93796 1.32574,23.30353 2.0059,42.7746 1.51147,43.26903 -0.49443,0.49442 -5.69579,-9.29896 -11.55857,-21.7631 z"
       id="path196"
       transform="scale(0.26458333)" />
    <path
       style="fill:#ff0000;fill-opacity:0;stroke:#ff0000;stroke-width:2.30636"
       d="m 271.58852,682.13985 c -12.12522,-26.25744 -23.32448,-61.69908 -25.99974,-82.27988 -1.169,-8.99307 -2.15749,-46.29922 -2.19666,-82.90257 -0.0563,-52.60232 0.67678,-69.52175 3.49746,-80.72258 12.00777,-47.68253 37.61897,-108.59871 57.187,-136.01911 5.58411,-7.82493 24.22,-27.88433 41.4131,-44.57643 34.28213,-33.28318 50.24436,-43.31844 80.68587,-50.72621 17.19196,-4.18357 30.13449,-2.5494 48.93448,6.17864 l 9.22544,4.28298 -28.83593,-1.33924 -28.83592,-1.33924 -14.98491,7.56183 c -22.8593,11.53547 -48.04112,29.28642 -63.76551,44.94901 -16.64008,16.57466 -20.58875,26.78366 -28.14932,72.77794 -8.31032,50.55535 -12.46806,105.40948 -15.59424,205.73923 l -1.56305,50.16332 H 290.26145 277.9163 l 0.1258,20.18064 c 0.0692,11.09935 1.00265,35.22964 2.07436,53.62286 1.07171,18.39321 1.69168,33.71701 1.37771,34.05286 -0.31397,0.33585 -4.77151,-8.48597 -9.90565,-19.60405 z"
       id="path197"
       transform="scale(0.26458333)" />
    <path
       style="fill:#ff0000;fill-opacity:0;stroke:#ff0000;stroke-width:2.30636"
       d="m 269.13574,669.42081 c -20.9459,-50.72503 -24.34248,-75.30677 -23.02475,-166.63447 l 0.89849,-62.2717 12.44281,-36.90175 c 6.84354,-20.29596 19.67972,-51.43182 28.52483,-69.19078 l 16.08203,-32.28903 37.09189,-37.00835 c 30.10389,-30.03609 40.1827,-38.61016 53.49768,-45.51066 22.61708,-11.72132 43.93093,-16.47467 59.38491,-13.24383 20.22425,4.22812 18.36956,6.00809 -5.27089,5.05857 l -22.69881,-0.91171 -19.21362,9.99603 c -42.34839,22.03205 -72.77672,50.23727 -80.23007,74.36841 -11.3815,36.84901 -19.54997,114.13312 -23.74161,224.62591 l -2.73417,72.07373 h -12.59253 -12.59252 l 1.6649,47.28036 c 0.9157,26.00421 1.15892,47.28037 0.54049,47.28037 -0.61842,0 -4.2315,-7.5245 -8.02906,-16.7211 z"
       id="path198"
       transform="scale(0.26458333)" />
    <path
       style="fill:#ff0000;fill-opacity:0;stroke:#ff0000;stroke-width:2.30636"
       d="m 266.27641,655.58265 c -13.84192,-35.77293 -16.31367,-53.47167 -17.6349,-126.27318 -0.69821,-38.47216 -0.23827,-72.42645 1.10909,-81.87575 5.46481,-38.32593 48.5985,-136.69097 68.22407,-155.58287 11.76265,-11.32293 12.23078,-11.28664 7.27912,0.56434 -11.02887,26.39581 -21.34223,127.70473 -25.70092,252.46221 l -1.55113,44.39742 h -12.70485 -12.70485 l 1.5887,42.66765 c 0.87378,23.4672 1.10931,42.66764 0.52341,42.66764 -0.58591,0 -4.37839,-8.56236 -8.42774,-19.02746 z"
       id="path199"
       transform="scale(0.26458333)" />
    <path
       style="fill:#ff0000;fill-opacity:0;stroke:#ff0000;stroke-width:2.30636"
       d="m 266.79765,649.81675 c -2.64969,-7.29386 -6.44236,-19.48874 -8.42815,-27.09972 -4.97121,-19.0533 -8.86622,-90.89016 -7.5656,-139.53474 1.00482,-37.58147 1.58522,-41.90766 8.42706,-62.81363 14.70277,-44.92588 41.75568,-103.30186 56.06653,-120.98282 6.0711,-7.50081 6.88706,-7.94195 5.58352,-3.01866 -10.08326,38.08303 -19.4024,136.16625 -23.61159,248.51022 l -1.57703,42.09106 h -12.70147 -12.70148 l 1.34922,38.05493 c 0.74207,20.93021 1.04039,38.05493 0.66292,38.05493 -0.37746,0 -2.85423,-5.96771 -5.50393,-13.26157 z"
       id="path200"
       transform="scale(0.26458333)" />
    <path
       style="fill:#ff0000;fill-opacity:0;stroke:#ff0000;stroke-width:2.30636"
       d="m 264.48134,634.82541 c -6.88039,-23.56817 -9.45417,-48.36546 -11.07152,-106.66912 -2.0615,-74.31471 0.88543,-92.75155 23.73597,-148.4993 12.844,-31.3351 36.81166,-78.00013 38.95886,-75.85292 0.41825,0.41824 -0.23568,5.19385 -1.45316,10.61247 -6.55613,29.17917 -16.27908,142.86457 -19.71018,230.46086 l -1.55835,39.7847 h -12.60252 -12.60252 l 0.86474,33.44221 c 0.47561,18.39322 0.74221,33.44221 0.59245,33.44221 -0.14976,0 -2.46896,-7.5245 -5.15377,-16.72111 z"
       id="path201"
       transform="scale(0.26458333)" />
    <path
       style="fill:#ff0000;fill-opacity:0;stroke:#ff0000;stroke-width:2.30636"
       d="m 262.30458,614.64477 c -4.33819,-22.22094 -8.17349,-100.6063 -6.60158,-134.92202 1.52951,-33.39005 6.27868,-55.04134 19.22405,-87.64166 10.64418,-26.80519 32.93359,-73.45744 34.39711,-71.99391 0.62252,0.62251 -0.46432,15.00009 -2.4152,31.95016 -5.15774,44.81265 -9.98494,108.11749 -13.2098,173.236 l -2.82689,57.0824 h -12.1632 -12.1632 l -0.65727,23.64018 -0.65727,23.64019 z"
       id="path202"
       transform="scale(0.26458333)" />
    <path
       style="fill:#ff0000;fill-opacity:0;stroke:#ff0000;stroke-width:2.30636"
       d="m 261.23369,581.20256 c -6.29637,-85.86228 -4.3669,-126.47356 7.81579,-164.50541 8.18493,-25.55168 34.70875,-85.47184 36.05138,-81.44394 0.50683,1.52047 -0.73642,19.59913 -2.76277,40.1748 -5.00457,50.81676 -7.49542,85.19803 -10.85601,149.84533 l -2.84744,54.77604 h -12.15772 -12.15771 l -0.69712,12.10839 c -0.53825,9.34892 -1.08256,6.85224 -2.3884,-10.95521 z"
       id="path203"
       transform="scale(0.26458333)" />
    <path
       style="fill:#ff0000;fill-opacity:0;stroke:#ff0000;stroke-width:2.30636"
       d="m 262.71102,569.34147 c -2.87155,-15.30669 -2.1646,-104.84031 0.95347,-120.75457 5.03087,-25.67697 21.67385,-71.62244 34.67078,-95.71392 l 4.97695,-9.22543 -1.12618,8.07225 c -3.16073,22.65532 -10.89939,129.26943 -14.10418,194.31078 l -1.56258,31.71244 h -11.11606 c -10.96103,0 -11.13804,-0.11716 -12.6922,-8.40155 z"
       id="path204"
       transform="scale(0.26458333)" />
    <path
       style="fill:#ff0000;fill-opacity:0;stroke:#ff0000;stroke-width:2.30636"
       d="m 265.07249,569.85902 c -0.76994,-3.0677 -1.00069,-32.38729 -0.51278,-65.15465 l 0.88712,-59.57701 8.82623,-26.52314 c 8.83531,-26.55044 22.04597,-58.47592 23.56753,-56.95435 0.44501,0.44501 -0.73327,19.40949 -2.6184,42.1433 -3.72954,44.97643 -10.35696,149.09175 -10.37536,162.99464 -0.0113,8.54394 -0.12283,8.64885 -9.19295,8.64885 -7.78747,0 -9.39404,-0.84685 -10.58139,-5.57764 z"
       id="path205"
       transform="scale(0.26458333)" />
    <path
       style="fill:#ff0000;fill-opacity:0;stroke:#ff0000;stroke-width:2.30636"
       d="m 267.3303,567.35923 c -0.79664,-3.17409 -0.98031,-32.49368 -0.40815,-65.15465 l 1.0403,-59.38358 8.27742,-23.0636 c 4.55258,-12.68497 10.3514,-27.73397 12.88627,-33.44221 4.40557,-9.92085 4.6157,-10.07344 4.76415,-3.45954 0.0854,3.8055 -1.84022,34.42242 -4.27919,68.03761 -2.43897,33.61518 -5.16339,74.87019 -6.05426,91.67778 l -1.61977,30.55926 h -6.57916 c -5.09587,0 -6.90572,-1.30111 -8.02761,-5.77107 z"
       id="path206"
       transform="scale(0.26458333)" />
    <path
       style="fill:#ff0000;fill-opacity:0;stroke:#ff0000;stroke-width:2.30636"
       d="m 269.57822,564.82005 c -0.82878,-3.30215 -0.9789,-32.10281 -0.33359,-64.00148 l 1.17328,-57.99757 9.95848,-27.04073 c 5.47716,-14.87241 10.22777,-26.77144 10.55691,-26.4423 0.32914,0.32913 -1.92234,37.40614 -5.00328,82.39335 -3.08095,44.98721 -5.62549,85.68691 -5.65454,90.44377 -0.0432,7.06578 -0.88908,8.64885 -4.6216,8.64885 -2.99818,0 -5.08679,-2.06394 -6.07566,-6.00389 z"
       id="path207"
       transform="scale(0.26458333)" />
    <path
       style="fill:#ff0000;fill-opacity:0;stroke:#ff0000;stroke-width:2.30636"
       d="m 271.85713,562.4043 c -0.84388,-3.3623 -0.95648,-31.64404 -0.2502,-62.84829 1.27047,-56.13141 1.35854,-56.93131 8.2777,-75.18589 8.62488,-22.75474 8.55462,-24.47059 2.64439,64.57807 -2.52573,38.05492 -4.59685,71.52596 -4.60248,74.38008 -0.0141,7.1656 -4.19895,6.52853 -6.06941,-0.92397 z"
       id="path208"
       transform="scale(0.26458333)" />
    <path
       style="fill:#ff0000;fill-opacity:0;stroke:#ff0000;stroke-width:2.30636"
       d=""
       id="path209"
       transform="scale(0.26458333)" />
    <path
       style="fill:#ff0000;fill-opacity:0;stroke:#ff0000;stroke-width:2.30636"
       d=""
       id="path210"
       transform="scale(0.26458333)" />
    <path
       style="fill:#ff0000;fill-opacity:0;stroke:#ff0000;stroke-width:2.30636"
       d="m 423.21694,838.50351 c -16.62633,-5.09814 -60.34399,-32.82105 -57.01182,-36.15322 0.55915,-0.55915 12.09322,4.36874 25.63126,10.95087 l 24.61462,11.9675 28.17633,-2.74225 c 15.49699,-1.50824 34.39495,-4.19263 41.99547,-5.96532 7.60052,-1.77269 14.207,-2.8352 14.68105,-2.36115 2.21121,2.21121 -23.4536,15.6893 -39.57445,20.78285 -18.30824,5.78469 -28.18457,6.68756 -38.51246,3.52072 z"
       id="path211"
       transform="scale(0.26458333)" />
    <path
       style="fill:#ff0000;fill-opacity:0;stroke:#ff0000;stroke-width:2.30636"
       d=""
       id="path212"
       transform="scale(0.26458333)" />
    <path
       style="fill:#ff0000;fill-opacity:0;stroke:#ff0000;stroke-width:2.30636"
       d=""
       id="path213"
       transform="scale(0.26458333)" />
    <path
       style="fill:#ff0000;fill-opacity:0;stroke:#ff0000;stroke-width:2.30636"
       d=""
       id="path214"
       transform="scale(0.26458333)" />
    <path
       style="fill:#ff0000;fill-opacity:0;stroke:#ff0000;stroke-width:2.30636"
       d="m 444.4238,846.43389 c 0.047,-3.8055 0.5639,-5.08307 1.14866,-2.83906 0.58477,2.24401 0.54631,5.3576 -0.0855,6.91908 -0.63176,1.56148 -1.1102,-0.27453 -1.0632,-4.08002 z"
       id="path215"
       transform="scale(0.26458333)" />
    <path
       style="fill:#ff0000;fill-opacity:0;stroke:#ff0000;stroke-width:2.30636"
       d="m 413.99151,831.38948 c -18.19124,-8.74825 -30.59152,-16.25139 -29.18419,-17.65872 0.57261,-0.57261 7.63277,2.30714 15.68924,6.39945 l 14.64813,7.44055 26.52313,-2.71641 c 14.58772,-1.49402 31.19351,-3.27088 36.90175,-3.94856 l 10.37862,-1.23216 -6.62356,3.79903 c -9.82557,5.63558 -30.39237,12.2998 -42.59844,13.80308 -8.95554,1.10296 -13.23807,0.12342 -25.73468,-5.88626 z"
       id="path216"
       transform="scale(0.26458333)" />
    <path
       style="fill:#ff0000;fill-opacity:0;stroke:#ff0000;stroke-width:2.30636"
       d=""
       id="path217"
       transform="scale(0.26458333)" />
    <path
       style="fill:#ff0000;fill-opacity:0;stroke:#ff0000;stroke-width:2.30636"
       d=""
       id="path218"
       transform="scale(0.26458333)" />
    <path
       style="fill:#ff0000;fill-opacity:0;stroke:#ff0000;stroke-width:2.30636"
       d=""
       id="path219"
       transform="scale(0.26458333)" />
    <path
       style="fill:#ff0000;fill-opacity:0;stroke:#ff0000;stroke-width:2.30636"
       d=""
       id="path220"
       transform="scale(0.26458333)" />
    <path
       style="fill:#ff0000;fill-opacity:0;stroke:#ff0000;stroke-width:2.30636"
       d=""
       id="path221"
       transform="scale(0.26458333)" />
    <path
       style="fill:#ff0000;fill-opacity:0;stroke:#ff0000;stroke-width:2.30636"
       d=""
       id="path222"
       transform="scale(0.26458333)" />
    <path
       style="fill:#ff0000;fill-opacity:0;stroke:#ff0000;stroke-width:2.30636"
       d=""
       id="path223"
       transform="scale(0.26458333)" />
    <path
       style="fill:#ff0000;fill-opacity:0;stroke:#ff0000;stroke-width:2.30636"
       d=""
       id="path224"
       transform="scale(0.26458333)" />
    <path
       style="fill:#ff0000;fill-opacity:0;stroke:#ff0000;stroke-width:2.30636"
       d=""
       id="path225"
       transform="scale(0.26458333)" />
    <path
       style="fill:#ff0000;fill-opacity:0;stroke:#ff0000;stroke-width:2.30636"
       d=""
       id="path226"
       transform="scale(0.26458333)" />
    <path
       style="fill:#ff0000;fill-opacity:0;stroke:#ff0000;stroke-width:2.30636"
       d=""
       id="path227"
       transform="scale(0.26458333)" />
    <path
       style="fill:#ff0000;fill-opacity:0;stroke:#ff0000;stroke-width:2.30636"
       d="m 424.37012,832.94415 c -6.5682,-2.85913 -5.71606,-3.14901 16.80377,-5.71627 30.90626,-3.52332 34.06788,-3.23514 19.88565,1.81256 -17.26441,6.14471 -28.73702,7.36538 -36.68942,3.90371 z"
       id="path228"
       transform="scale(0.26458333)" />
    <path
       style="fill:#ff0000;fill-opacity:0;stroke:#ff0000;stroke-width:2.30636"
       d="m 437.63169,829.85272 c 2.21987,-0.58011 5.85239,-0.58011 8.07226,0 2.21987,0.58011 0.40361,1.05475 -4.03613,1.05475 -4.43974,0 -6.256,-0.47464 -4.03613,-1.05475 z"
       id="path229"
       transform="scale(0.26458333)" />
    <path
       style="fill:#ff0000;fill-opacity:0;stroke:#ff0000;stroke-width:2.30636"
       d=""
       id="path230"
       transform="scale(0.26458333)" />
    <path
       style="fill:#ff0000;fill-opacity:0;stroke:#ff0000;stroke-width:2.30636"
       d=""
       id="path231"
       transform="scale(0.26458333)" />
    <path
       style="fill:#ff0000;fill-opacity:0;stroke:#ff0000;stroke-width:2.30636"
       d=""
       id="path232"
       transform="scale(0.26458333)" />
    <path
       style="fill:#ff0000;fill-opacity:0;stroke:#ff0000;stroke-width:2.30636"
       d=""
       id="path233"
       transform="scale(0.26458333)" />
    <path
       style="fill:#ff0000;fill-opacity:0;stroke:#ff0000;stroke-width:2.30636"
       d=""
       id="path234"
       transform="scale(0.26458333)" />
    <path
       style="fill:#ff0000;fill-opacity:0;stroke:#ff0000;stroke-width:2.30636"
       d="m 622.01347,551.21989 c 0.047,-3.8055 0.5639,-5.08307 1.14866,-2.83906 0.58477,2.24402 0.54631,5.3576 -0.0855,6.91908 -0.63176,1.56148 -1.1102,-0.27453 -1.0632,-4.08002 z"
       id="path235"
       transform="scale(0.26458333)" />
    <path
       style="fill:#ff0000;fill-opacity:0;stroke:#ff0000;stroke-width:2.30636"
       d="m 622.19202,545.45399 c 0,-5.70824 0.44977,-8.04343 0.9995,-5.18931 0.54973,2.85412 0.54973,7.5245 0,10.37862 -0.54973,2.85412 -0.9995,0.51893 -0.9995,-5.18931 z"
       id="path236"
       transform="scale(0.26458333)" />
    <path
       style="fill:#ff0000;fill-opacity:0;stroke:#ff0000;stroke-width:2.30636"
       d="m 617.48621,518.93086 c -0.0819,-51.07463 0.61982,-77.75779 1.91059,-72.65032 2.35129,9.3039 2.18225,135.8246 -0.19554,146.35247 -0.87209,3.86124 -1.64386,-29.30474 -1.71505,-73.70215 z"
       id="path237"
       transform="scale(0.26458333)" />
    <path
       style="fill:#ff0000;fill-opacity:0;stroke:#ff0000;stroke-width:2.30636"
       d="m 618.4887,523.15918 c -0.84566,-0.84566 -1.53757,-4.65116 -1.53757,-8.45665 0,-8.59656 2.60184,-6.5028 3.70624,2.9825 0.84047,7.21854 0.4816,8.12442 -2.16867,5.47415 z"
       id="path238"
       transform="scale(0.26458333)" />
    <path
       style="fill:#ff0000;fill-opacity:0;stroke:#ff0000;stroke-width:2.30636"
       d=""
       id="path239"
       transform="scale(0.26458333)" />
    <path
       style="fill:#ff0000;fill-opacity:0;stroke:#ff0000;stroke-width:2.30636"
       d=""
       id="path240"
       transform="scale(0.26458333)" />
    <path
       style="fill:#ff0000;fill-opacity:0;stroke:#ff0000;stroke-width:2.30636"
       d=""
       id="path241"
       transform="scale(0.26458333)" />
    <path
       style="fill:#ff0000;fill-opacity:0;stroke:#ff0000;stroke-width:2.30636"
       d=""
       id="path242"
       transform="scale(0.26458333)" />
    <path
       style="fill:#ff0000;fill-opacity:0;stroke:#ff0000;stroke-width:2.30636"
       d="m 274.05211,503.93952 c 1.19785,-50.92494 2.00479,-60.51333 6.01707,-71.49714 l 4.6337,-12.68498 -1.14335,16.14452 c -0.62885,8.87948 -2.65897,40.43199 -4.51138,70.11667 -1.85241,29.68469 -4.04558,54.59337 -4.87371,55.35263 -0.82814,0.75925 -0.88318,-25.08501 -0.12233,-57.4317 z"
       id="path243"
       transform="scale(0.26458333)" />
    <path
       style="fill:#ff0000;fill-opacity:0;stroke:#ff0000;stroke-width:2.30636"
       d="m 265.60199,515.59487 c -1.75837,-8.79188 -1.73351,-18.85138 0.0357,-14.44204 0.91794,2.28774 1.94629,2.35602 4.43064,0.29419 3.98548,-3.30765 4.00326,-1.46352 0.11137,11.5532 l -3.05386,10.21387 z"
       id="path244"
       transform="scale(0.26458333)" />
    <path
       style="fill:#ff0000;fill-opacity:0;stroke:#ff0000;stroke-width:2.30636"
       d=""
       id="path245"
       transform="scale(0.26458333)" />
    <path
       style="fill:#ff0000;fill-opacity:0;stroke:#ff0000;stroke-width:2.30636"
       d=""
       id="path246"
       transform="scale(0.26458333)" />
    <path
       style="fill:#ff0000;fill-opacity:0;stroke:#ff0000;stroke-width:2.30636"
       d=""
       id="path247"
       transform="scale(0.26458333)" />
    <path
       style="fill:#ff0000;fill-opacity:0;stroke:#ff0000;stroke-width:2.30636"
       d=""
       id="path248"
       transform="scale(0.26458333)" />
    <path
       style="fill:#ff0000;fill-opacity:0;stroke:#ff0000;stroke-width:2.30636"
       d=""
       id="path249"
       transform="scale(0.26458333)" />
    <path
       style="fill:#ff0000;fill-opacity:0;stroke:#ff0000;stroke-width:2.30636"
       d="m 328.65621,796.84716 c 0,-1.2685 0.97661,-2.30636 2.17024,-2.30636 1.19364,0 2.81168,1.03786 3.59566,2.30636 0.78397,1.2685 -0.19264,2.30636 -2.17025,2.30636 -1.97761,0 -3.59565,-1.03786 -3.59565,-2.30636 z"
       id="path250"
       transform="scale(0.26458333)" />
    <path
       style="fill:#ff0000;fill-opacity:0;stroke:#ff0000;stroke-width:2.30636"
       d=""
       id="path251"
       transform="scale(0.26458333)" />
    <path
       style="fill:#ff0000;fill-opacity:0;stroke:#ff0000;stroke-width:2.30636"
       d="m 398.42358,838.28976 c -2.85412,-1.14722 -5.18931,-2.54106 -5.18931,-3.09743 0,-1.7167 9.2212,1.29655 10.55067,3.44769 1.46686,2.37342 1.4047,2.36936 -5.36136,-0.35026 z"
       id="path252"
       transform="scale(0.26458333)" />
    <path
       style="fill:#ff0000;fill-opacity:0;stroke:#ff0000;stroke-width:2.30636"
       d="m 423.21694,846.06908 c -1.90274,-0.63461 -4.90541,-1.61496 -6.67259,-2.17857 -1.76718,-0.56361 -2.71443,-1.52337 -2.10499,-2.1328 0.60943,-0.60944 5.16889,0.37972 10.13213,2.19813 8.15013,2.98601 6.93699,4.87863 -1.35455,2.11324 z"
       id="path253"
       transform="scale(0.26458333)" />
  </g>
</svg>
